<?xml version="1.0" encoding="UTF-8"?>
<svg width="19" height="19" version="1.1" viewBox="0 0 19 19" xmlns="http://www.w3.org/2000/svg" xmlns:xlink="http://www.w3.org/1999/xlink">
    <!--Generated by IJSVG (https://github.com/iconjar/IJSVG)-->
    <g transform="scale(0.989586)">
        <path fill="#FFF" d="M13.8978,7.05115l3.77739e-08,9.79131e-08c-0.16822,-0.436041 -0.512869,-0.78069 -0.94891,-0.94891l-2.11684e-07,-7.84502e-08c-0.297313,-0.110184 -0.611359,-0.168426 -0.92841,-0.17218c-0.52729,-0.02406 -0.68537,-0.02912 -2.02045,-0.02912c-1.33508,0 -1.49316,0.00506 -2.02045,0.02911l-1.3312e-07,1.57617e-09c-0.317051,0.00375396 -0.631097,0.0619958 -0.92841,0.17218l1.68509e-07,-6.50092e-08c-0.436041,0.16822 -0.78069,0.512869 -0.94891,0.94891l1.08694e-07,-2.93292e-07c-0.110184,0.297313 -0.168426,0.611359 -0.17218,0.92841c-0.0240499,0.52729 -0.0291099,0.68545 -0.0291099,2.02045c0,1.335 0.00507,1.49316 0.02911,2.02045l-6.8269e-08,-5.77739e-06c0.00374614,0.317052 0.0619876,0.631099 0.172178,0.92841l-1.06586e-09,-2.7628e-09c0.16822,0.43604 0.51287,0.78069 0.94891,0.94891l2.94123e-07,1.09002e-07c0.297313,0.110184 0.611359,0.168426 0.92841,0.17218c0.52716,0.024 0.6853,0.02911 2.02045,0.02911c1.33515,0 1.49329,-0.00507 2.02045,-0.02911l-1.08665e-07,1.2866e-09c0.317051,-0.00375393 0.631097,-0.0619958 0.92841,-0.17218l-1.19402e-07,4.60639e-08c0.436041,-0.16822 0.78069,-0.512869 0.94891,-0.94891l5.59841e-08,-1.51053e-07c0.110191,-0.297311 0.168433,-0.611358 0.17218,-0.92841c0.024,-0.52728 0.02911,-0.68536 0.02911,-2.02045c0,-1.33509 -0.00505816,-1.49315 -0.0291082,-2.02044l1.01476e-07,8.56892e-06c-0.0037541,-0.317048 -0.0619949,-0.63109 -0.172177,-0.9284Zm-3.89777,5.51642l-1.12232e-07,-3.55271e-15c-1.41803,-6.1984e-08 -2.56757,-1.14954 -2.56757,-2.56757c6.19841e-08,-1.41803 1.14954,-2.56757 2.56757,-2.56757c1.41803,6.19841e-08 2.56757,1.14954 2.56757,2.56757l1.9039e-11,9.88779e-06c0,1.41802 -1.14954,2.56756 -2.56756,2.56756c-6.62926e-06,0 -1.32585e-05,-2.56755e-11 -1.98878e-05,-7.70228e-11Zm2.669,-4.63657h-2.62268e-08c-0.331371,-1.44847e-08 -0.6,-0.268629 -0.6,-0.6c1.44847e-08,-0.331371 0.268629,-0.6 0.6,-0.6c0.331371,1.44847e-08 0.6,0.268629 0.6,0.6c0,0 0,0 0,0l1.77636e-15,-2.62268e-08c0,0.331371 -0.268629,0.6 -0.6,0.6Z" transform="matrix(1,0,0,1,-0.40002,-0.40002)"></path>
        <path fill="#FFF" d="M10.7785,8.42145c0.650883,0.650883 0.650883,1.70617 0,2.35706c-0.650883,0.650883 -1.70617,0.650883 -2.35706,0c-0.650883,-0.650883 -0.650883,-1.70617 0,-2.35706c0.650883,-0.650883 1.70617,-0.650883 2.35706,0"></path>
        <path fill="#FFF" d="M10,0.4l-4.19629e-07,8.88178e-15c-5.30193,2.31755e-07 -9.6,4.29807 -9.6,9.6c2.31755e-07,5.30193 4.29807,9.6 9.6,9.6c5.30193,-2.31755e-07 9.6,-4.29807 9.6,-9.6l1.28033e-10,-4.95805e-05c0,-5.30191 -4.29804,-9.59995 -9.59995,-9.59995c-3.31936e-05,0 -6.6387e-05,1.72159e-10 -9.95806e-05,5.16478e-10Zm4.96991,11.6615l1.0575e-07,-5.26959e-06c-0.00832362,0.414788 -0.0869099,0.825163 -0.232418,1.21368l6.86452e-08,-1.77536e-07c-0.259694,0.67164 -0.79064,1.20259 -1.46228,1.46228l-4.24431e-07,1.58959e-07c-0.388517,0.145509 -0.798892,0.224096 -1.21368,0.23242c-0.533332,0.024385 -0.703622,0.030125 -2.06153,0.030125c-1.35791,0 -1.5282,-0.00574 -2.06152,-0.03009l-1.1979e-07,-2.40401e-09c-0.414788,-0.00832423 -0.825163,-0.0869111 -1.21368,-0.23242l2.27083e-09,8.7803e-10c-0.67164,-0.259694 -1.20259,-0.79064 -1.46228,-1.46228l-6.17691e-08,-1.64927e-07c-0.145509,-0.388517 -0.224096,-0.798892 -0.23242,-1.21368c-0.0243599,-0.53333 -0.0300999,-0.70362 -0.0300999,-2.06153c0,-1.35791 0.00574,-1.5282 0.03009,-2.06152l-1.0382e-07,5.17345e-06c0.00832363,-0.414788 0.0869099,-0.825163 0.232418,-1.21368l4.46685e-08,-1.15528e-07c0.259691,-0.671646 0.790638,-1.2026 1.46228,-1.46229l1.23939e-07,-4.64179e-08c0.388517,-0.145509 0.798892,-0.224096 1.21368,-0.23242c0.53333,-0.02435 0.70362,-0.03009 2.06153,-0.03009c1.35791,0 1.5282,0.00574 2.06152,0.03009l-2.01022e-07,-4.03422e-09c0.414788,0.0083242 0.825163,0.0869111 1.21368,0.23242l-2.10696e-07,-8.14669e-08c0.67164,0.259694 1.20259,0.79064 1.46228,1.46228l-8.91377e-08,-2.38003e-07c0.145509,0.388517 0.224096,0.798892 0.23242,1.21368c0.0243603,0.533331 0.0301003,0.703621 0.0301003,2.06153c0,1.35791 -0.00574,1.5282 -0.03009,2.06152Z" transform="matrix(1,0,0,1,-0.40002,-0.40002)"></path>
    </g>
</svg>