<?xml version="1.0" encoding="UTF-8"?>
<svg version="1.1" viewBox="0 0 20 20" xmlns="http://www.w3.org/2000/svg" xmlns:xlink="http://www.w3.org/1999/xlink">
    <!--Generated by IJSVG (https://github.com/iconjar/IJSVG)-->
    <path d="M10,0.4c-5.302,0 -9.6,4.298 -9.6,9.6c0,5.302 4.298,9.6 9.6,9.6c5.302,0 9.6,-4.298 9.6,-9.6c0,-5.302 -4.298,-9.6 -9.6,-9.6Zm-2.35,13.579h-1.944v-6.256h1.944v6.256Zm-0.984,-7.024c-0.614,0 -1.011,-0.435 -1.011,-0.973c0,-0.549 0.409,-0.971 1.036,-0.971c0.627,0 1.011,0.422 1.023,0.971c0,0.538 -0.396,0.973 -1.048,0.973Zm8.084,7.024h-1.944v-3.467c0,-0.807 -0.282,-1.355 -0.985,-1.355c-0.537,0 -0.856,0.371 -0.997,0.728c-0.052,0.127 -0.065,0.307 -0.065,0.486v3.607h-1.945v-4.26c0,-0.781 -0.025,-1.434 -0.051,-1.996h1.689l0.089,0.869h0.039c0.256,-0.408 0.883,-1.01 1.932,-1.01c1.279,0 2.238,0.857 2.238,2.699v3.699Z" fill="#FFF"></path>
</svg>